<?xml version="1.0" encoding="UTF-8"?>
<svg id="OBJECTS" xmlns="http://www.w3.org/2000/svg" viewBox="0 0 500 500">
  <defs>
    <style>
      .cls-1 {
        fill: #fff;
        stroke-width: 0px;
      }
    </style>
  </defs>
  <g>
    <g>
      <path class="cls-1" d="M119.66,299.01l-4.73-1.86-7.65,3.03-3.4-8.56,30.58-12.13,3.4,8.56-12.71,5.04,17.41,6.8,3.78,9.52-18.5-7.12-11.82,19.91-3.99-10.05,7.63-13.14Z"/>
      <path class="cls-1" d="M126.2,334.19c-.55-3.09-.29-6.06.78-8.91,1.07-2.85,2.89-5.28,5.45-7.29,2.56-2.01,5.36-3.2,8.38-3.55,3.02-.36,5.97.1,8.84,1.37,2.87,1.27,5.38,3.28,7.52,6.02,2.15,2.74,3.5,5.65,4.05,8.74.55,3.09.29,6.06-.78,8.91-1.07,2.85-2.89,5.28-5.45,7.29-2.56,2.01-5.36,3.2-8.38,3.55-3.02.36-5.97-.1-8.84-1.37s-5.38-3.28-7.52-6.02c-2.15-2.74-3.5-5.65-4.05-8.74ZM140.02,341c1.45.58,2.97.73,4.58.47,1.6-.26,3.13-.96,4.59-2.11,1.45-1.14,2.5-2.46,3.14-3.96.64-1.5.85-3.02.64-4.56-.22-1.54-.83-2.97-1.86-4.28-1.02-1.31-2.26-2.25-3.71-2.83-1.45-.58-2.97-.73-4.58-.47-1.61.26-3.14.96-4.59,2.11-1.46,1.14-2.5,2.46-3.14,3.96-.64,1.5-.85,3.02-.64,4.56.21,1.54.83,2.97,1.86,4.28,1.02,1.31,2.26,2.25,3.71,2.83Z"/>
      <path class="cls-1" d="M176.94,351.6l-11.32,14.66,4.2,3.25-4.39,5.69-15.81-12.21,4.39-5.69,4.24,3.27,11.32-14.66-4.24-3.27,4.39-5.69,15.81,12.21-4.39,5.69-4.2-3.25Z"/>
      <path class="cls-1" d="M196.65,354.06c.41,1.33.23,2.69-.52,4.06-.35.63-.78,1.22-1.29,1.76-.51.54-1.39,1.29-2.64,2.25l-5.95,4.56-4.9-2.7,5.63-5.64c-.57-.78-.88-1.64-.92-2.57-.04-.93.2-1.87.71-2.8.76-1.37,1.81-2.24,3.16-2.61,1.35-.37,2.71-.17,4.08.59,1.34.74,2.22,1.78,2.63,3.11Z"/>
      <path class="cls-1" d="M194.69,390.05c-2.17-1.41-3.83-2.89-4.97-4.42l5.06-5.55c1.09,1.39,2.47,2.67,4.12,3.84,1.66,1.18,3.38,2.06,5.16,2.65,3.39,1.12,5.37.84,5.93-.86.3-.89.03-1.71-.79-2.47-.82-.75-2.23-1.72-4.21-2.91-2.18-1.28-3.96-2.48-5.35-3.58-1.38-1.1-2.43-2.48-3.13-4.13-.71-1.65-.7-3.57.02-5.74.63-1.9,1.72-3.45,3.27-4.63,1.55-1.19,3.5-1.88,5.87-2.09,2.36-.21,5.05.19,8.05,1.19,2.05.68,4,1.58,5.84,2.7,1.84,1.12,3.37,2.38,4.59,3.78l-4.9,5.66c-2.44-2.59-5.06-4.35-7.85-5.28-1.75-.58-3.12-.75-4.1-.49-.98.25-1.6.8-1.88,1.63-.28.83,0,1.62.81,2.35.81.73,2.2,1.67,4.17,2.82,2.21,1.29,4,2.49,5.37,3.59,1.37,1.1,2.42,2.47,3.14,4.11.73,1.64.73,3.55,0,5.72-.62,1.87-1.7,3.4-3.25,4.57-1.54,1.17-3.51,1.87-5.89,2.08-2.38.22-5.06-.17-8.04-1.16-2.53-.84-4.88-1.96-7.05-3.38Z"/>
      <path class="cls-1" d="M273.76,366.36l2.22,32.83-9.28.63-.87-12.8-12.66.86.87,12.8-9.28.63-2.22-32.82,9.28-.63.84,12.33,12.66-.86-.84-12.33,9.28-.63Z"/>
      <path class="cls-1" d="M295.99,392.16c-3.12-.36-5.89-1.46-8.31-3.3-2.42-1.84-4.23-4.28-5.42-7.32-1.19-3.03-1.52-6.05-1-9.05.52-3,1.81-5.69,3.85-8.07s4.68-4.21,7.92-5.48,6.42-1.73,9.54-1.37c3.12.36,5.89,1.46,8.31,3.3,2.42,1.84,4.23,4.28,5.42,7.32,1.19,3.03,1.52,6.05,1,9.05s-1.81,5.69-3.85,8.07c-2.04,2.38-4.68,4.21-7.92,5.48s-6.42,1.73-9.54,1.37ZM306.49,380.87c.97-1.22,1.56-2.64,1.77-4.25.21-1.61-.02-3.28-.7-5-.67-1.72-1.64-3.1-2.89-4.14-1.25-1.04-2.65-1.68-4.19-1.92-1.54-.24-3.08-.05-4.63.55-1.55.61-2.8,1.52-3.77,2.74-.97,1.22-1.56,2.64-1.77,4.25-.21,1.61.02,3.28.7,5s1.64,3.1,2.89,4.14c1.25,1.04,2.65,1.68,4.19,1.92s3.08.05,4.63-.55c1.55-.61,2.8-1.52,3.77-2.74Z"/>
      <path class="cls-1" d="M336.08,332.06l20.6,25.65-7.04,5.65-2.35-2.93c.07,1.79-.29,3.49-1.09,5.1-.8,1.61-1.99,3.05-3.58,4.32-3.03,2.43-6.17,3.35-9.41,2.77-3.25-.59-6.31-2.68-9.19-6.27l-12.01-14.95,7.26-5.83,11.83,14.73c1.45,1.81,2.95,2.84,4.49,3.08,1.54.25,3.02-.2,4.44-1.34,1.49-1.2,2.3-2.65,2.43-4.36.13-1.71-.57-3.52-2.1-5.43l-11.53-14.37,7.26-5.83Z"/>
      <path class="cls-1" d="M367.6,344.4c-2.01,1.64-3.91,2.78-5.72,3.4l-3.76-6.5c1.65-.62,3.29-1.54,4.91-2.77s2.99-2.59,4.09-4.12c2.1-2.89,2.42-4.86.98-5.91-.76-.55-1.62-.55-2.59,0-.97.56-2.31,1.6-4.05,3.13-1.89,1.69-3.56,3.03-5.03,4.01-1.47.99-3.1,1.56-4.89,1.74-1.79.17-3.61-.41-5.46-1.76-1.62-1.18-2.77-2.68-3.43-4.52-.66-1.83-.73-3.91-.21-6.22.52-2.31,1.71-4.75,3.57-7.31,1.27-1.75,2.72-3.33,4.34-4.74s3.29-2.49,4.99-3.23l3.91,6.38c-3.21,1.54-5.68,3.5-7.41,5.89-1.09,1.5-1.66,2.75-1.71,3.75-.05,1.01.28,1.77.99,2.28.71.52,1.54.5,2.48-.06.94-.55,2.26-1.59,3.95-3.12,1.9-1.72,3.59-3.06,5.05-4.03,1.46-.97,3.08-1.55,4.87-1.75,1.79-.19,3.61.38,5.46,1.72,1.6,1.16,2.72,2.65,3.37,4.48.65,1.83.72,3.91.2,6.24-.52,2.34-1.69,4.77-3.53,7.31-1.56,2.16-3.35,4.05-5.35,5.7Z"/>
      <path class="cls-1" d="M394.2,289.75c.28,1.93.23,4.12-.14,6.57-.37,2.45-1.03,4.88-2,7.3-1.3,3.26-2.79,5.88-4.49,7.85-1.7,1.97-3.47,3.26-5.33,3.85-1.86.59-3.7.53-5.53-.21-1.6-.64-2.84-1.64-3.71-3s-1.34-2.94-1.4-4.75c-1.09.95-2.3,1.52-3.64,1.71-1.34.19-2.67.03-3.98-.5-1.69-.67-3.02-1.82-3.99-3.44s-1.45-3.69-1.42-6.21c.02-2.52.67-5.38,1.95-8.58.8-2.01,1.78-3.91,2.93-5.71,1.16-1.8,2.35-3.31,3.58-4.54l5.52,4.93c-2.27,2.23-3.98,4.79-5.13,7.67-.82,2.07-1.17,3.72-1.03,4.95.13,1.23.68,2.04,1.64,2.42,1.75.7,3.12-.22,4.13-2.76l3.44-8.65,6.59,2.62-3.67,9.21c-.59,1.48-.8,2.7-.62,3.65.18.95.73,1.61,1.67,1.98.99.39,1.98.15,2.97-.74.99-.89,1.95-2.49,2.88-4.82.66-1.66,1.12-3.46,1.37-5.4.25-1.94.24-3.72-.02-5.35l7.42-.08Z"/>
    </g>
    <g>
      <path class="cls-1" d="M130.34,222.04c-1.12,1.1-2.46,1.85-4,2.23-1.54.38-3.13.35-4.77-.11-1.63-.46-3-1.25-4.1-2.37-1.1-1.12-1.84-2.44-2.21-3.96-.37-1.52-.33-3.08.11-4.67.44-1.59,1.22-2.94,2.32-4.05,1.1-1.11,2.42-1.87,3.95-2.28s3.11-.38,4.74.07c1.63.46,3.01,1.26,4.12,2.41,1.12,1.15,1.87,2.49,2.26,4.01.39,1.53.36,3.08-.08,4.68-.45,1.59-1.23,2.94-2.35,4.04Z"/>
      <path class="cls-1" d="M132.33,145.43l35.74,24.62-6.75,9.8-4.08-2.81c.77,2.24.95,4.52.55,6.85-.4,2.33-1.37,4.61-2.89,6.82-2.91,4.22-6.52,6.57-10.85,7.06-4.32.49-8.99-1-13.99-4.44l-20.83-14.35,6.96-10.11,20.53,14.14c2.52,1.74,4.8,2.47,6.85,2.19,2.04-.27,3.75-1.4,5.11-3.37,1.43-2.08,1.9-4.22,1.42-6.44-.48-2.21-2.05-4.24-4.71-6.06l-20.02-13.79,6.96-10.11Z"/>
      <path class="cls-1" d="M210.25,100.15c3.91,1.49,7.1,4.83,9.59,10.01l11.5,23.91-11.06,5.32-11.34-23.58c-1.13-2.35-2.6-3.83-4.41-4.45-1.81-.62-3.74-.44-5.79.55-2.2,1.06-3.63,2.54-4.3,4.44-.67,1.9-.38,4.14.85,6.71l11.07,23.02-11.06,5.32-11.34-23.58c-1.13-2.35-2.55-3.85-4.27-4.52-1.72-.66-3.56-.52-5.54.43-2.12,1.02-3.51,2.48-4.16,4.37-.65,1.89-.35,4.13.88,6.7l11.07,23.02-11.06,5.32-18.81-39.11,10.73-5.16,2.1,4.36c.39-2.25,1.31-4.26,2.77-6.04,1.46-1.78,3.44-3.27,5.93-4.47,2.57-1.24,5.04-1.85,7.4-1.84,2.37,0,4.57.62,6.63,1.84.48-2.43,1.58-4.63,3.29-6.6,1.71-1.97,3.89-3.59,6.54-4.86,4.62-2.22,8.88-2.59,12.79-1.09Z"/>
      <path class="cls-1" d="M272.21,96.94c2.99,1.86,5.23,4.4,6.72,7.64,1.48,3.24,2.07,7.04,1.75,11.41l-1.7,23.37-12.24-.89.7-9.58-16.88-1.23-.7,9.58-12.06-.88,1.7-23.37c.32-4.37,1.45-8.05,3.38-11.04,1.94-2.99,4.52-5.18,7.75-6.58,3.23-1.4,6.89-1.95,10.97-1.66,4.08.3,7.62,1.37,10.61,3.23ZM268.12,119.42l.39-5.38c.23-3.17-.36-5.62-1.76-7.34-1.41-1.72-3.39-2.67-5.95-2.86-2.6-.19-4.72.46-6.36,1.96-1.64,1.5-2.58,3.83-2.81,7.01l-.39,5.38,16.88,1.23Z"/>
      <path class="cls-1" d="M360.14,140.66c.67,4.13-.61,8.57-3.83,13.32l-14.9,21.96-10.16-6.89,14.69-21.65c1.46-2.15,2.01-4.17,1.63-6.05-.37-1.88-1.5-3.46-3.38-4.73-2.02-1.37-4.02-1.86-6-1.49-1.98.38-3.77,1.75-5.37,4.11l-14.34,21.14-10.16-6.89,14.69-21.65c1.46-2.16,2.05-4.14,1.76-5.96-.29-1.82-1.34-3.34-3.15-4.57-1.95-1.32-3.91-1.79-5.87-1.4-1.96.39-3.75,1.77-5.35,4.13l-14.34,21.14-10.16-6.89,24.37-35.91,9.85,6.68-2.72,4c2.14-.8,4.34-1.01,6.62-.64,2.27.37,4.55,1.33,6.85,2.88,2.36,1.6,4.13,3.43,5.31,5.48,1.18,2.05,1.76,4.27,1.74,6.65,2.35-.81,4.8-.96,7.36-.47,2.56.49,5.06,1.56,7.49,3.21,4.24,2.88,6.7,6.38,7.37,10.51Z"/>
      <path class="cls-1" d="M380.7,182.79l-21.17,12.2,3.5,6.07-8.22,4.74-13.16-22.83,8.22-4.74,3.53,6.12,21.17-12.2-3.53-6.12,8.22-4.74,13.16,22.83-8.22,4.74-3.5-6.07Z"/>
      <path class="cls-1" d="M367.71,214.87c.41-1.52,1.18-2.84,2.32-3.95,1.14-1.11,2.52-1.89,4.16-2.32,1.64-.43,3.22-.45,4.74-.04s2.82,1.18,3.91,2.3c1.09,1.12,1.84,2.48,2.27,4.08.42,1.6.44,3.16.05,4.67-.39,1.51-1.14,2.84-2.25,3.96-1.11,1.13-2.49,1.91-4.13,2.34-1.64.43-3.23.44-4.77.01-1.55-.42-2.87-1.2-3.98-2.31-1.11-1.12-1.87-2.48-2.3-4.07-.42-1.6-.43-3.16-.02-4.68Z"/>
    </g>
    <g>
      <g>
        <path class="cls-1" d="M93.67,245.6c-.87.58-1.31,1.36-1.31,2.34,0,.7.25,1.24.76,1.62s1.22.56,2.15.56h4.32l-.41,2.06h-4.61c-1.38,0-2.47.26-3.28.79-.81.53-1.21,1.26-1.21,2.21,0,.83.37,1.47,1.1,1.92s1.83.67,3.29.67c1.18,0,2.3-.15,3.34-.46,1.04-.3,1.9-.72,2.57-1.25l.79,1.87c-.8.58-1.82,1.04-3.07,1.38s-2.55.52-3.91.52c-2,0-3.58-.39-4.75-1.16s-1.75-1.85-1.75-3.23c0-1.1.35-2.06,1.04-2.87.7-.81,1.63-1.37,2.8-1.69-.5-.29-.88-.68-1.15-1.19s-.41-1.08-.41-1.72c0-1.07.31-2.01.92-2.81.62-.8,1.48-1.42,2.6-1.86,1.12-.44,2.42-.66,3.89-.66,1.12,0,2.16.11,3.11.34.95.22,1.77.55,2.46.98l-.84,1.9c-1.36-.77-2.98-1.15-4.87-1.15-1.5,0-2.69.29-3.56.88Z"/>
        <path class="cls-1" d="M107.54,259.27c-1.16-.38-2.05-.87-2.68-1.46l1.06-1.92c.64.59,1.45,1.06,2.42,1.4.98.34,1.98.52,3.02.52,1.38,0,2.48-.25,3.3-.76.82-.5,1.24-1.2,1.24-2.1,0-.48-.16-.88-.48-1.2-.32-.32-.71-.58-1.18-.77-.46-.19-1.12-.42-1.97-.67-1.07-.32-1.94-.62-2.59-.91s-1.22-.72-1.69-1.28c-.47-.57-.71-1.32-.71-2.24,0-1.06.3-1.98.89-2.76.59-.78,1.42-1.39,2.47-1.81,1.06-.42,2.26-.64,3.62-.64,1.04,0,2.03.12,2.96.37s1.75.6,2.44,1.04l-.96,1.97c-.62-.45-1.32-.78-2.1-1.01-.78-.22-1.6-.34-2.46-.34-1.38,0-2.47.27-3.29.8-.82.54-1.22,1.25-1.22,2.15,0,.5.16.91.49,1.25.33.34.74.6,1.22.79.49.19,1.16.42,2,.67,1.06.32,1.91.62,2.56.9.65.28,1.2.69,1.66,1.24.46.54.68,1.25.68,2.11,0,1.07-.3,2-.9,2.78-.6.78-1.44,1.39-2.51,1.81-1.07.42-2.3.64-3.7.64-1.25,0-2.45-.19-3.61-.58Z"/>
        <path class="cls-1" d="M136.9,246.48c-1.46-.93-3.13-1.47-5.02-1.63l-2.98,14.81h-2.38l2.98-14.86c-2.11.14-3.93.69-5.45,1.63l-.67-1.9c.99-.61,2.14-1.07,3.43-1.39,1.3-.32,2.62-.48,3.96-.48,2.85,0,5.25.64,7.2,1.92l-1.08,1.9Z"/>
        <path class="cls-1" d="M143.19,242.86h6.58c1.68,0,3.12.28,4.33.85,1.21.57,2.13,1.37,2.76,2.4.63,1.03.95,2.24.95,3.64,0,1.95-.44,3.68-1.31,5.18s-2.1,2.67-3.67,3.49c-1.58.82-3.4,1.24-5.48,1.24h-7.51l3.36-16.8ZM147.41,257.57c1.62,0,3.02-.33,4.22-.98,1.2-.66,2.12-1.56,2.77-2.72s.97-2.48.97-3.97-.5-2.76-1.49-3.64c-.99-.87-2.45-1.31-4.37-1.31h-4.37l-2.52,12.62h4.78Z"/>
      </g>
      <g>
        <path class="cls-1" d="M345.12,257.57h8.4l-.41,2.09h-12.07l.34-1.63,8.18-6.55c1.1-.9,1.87-1.66,2.29-2.29.42-.63.64-1.3.64-2,0-.75-.28-1.34-.83-1.78-.55-.43-1.37-.65-2.46-.65-.82,0-1.6.16-2.36.49-.76.33-1.42.79-1.98,1.38l-1.61-1.39c.7-.8,1.61-1.43,2.71-1.88s2.3-.68,3.58-.68c1.68,0,2.99.38,3.94,1.15.94.77,1.42,1.78,1.42,3.05,0,1.02-.27,1.99-.82,2.89-.54.9-1.51,1.91-2.9,3.01l-6.05,4.8Z"/>
        <path class="cls-1" d="M360.36,258.21c-1.01-1.09-1.51-2.6-1.51-4.54s.35-3.77,1.06-5.46c.7-1.69,1.7-3.04,2.99-4.04,1.29-1.01,2.77-1.51,4.45-1.51,1.78,0,3.16.54,4.16,1.63,1,1.09,1.5,2.6,1.5,4.54s-.35,3.77-1.06,5.46c-.7,1.69-1.7,3.04-2.99,4.04-1.29,1.01-2.76,1.51-4.43,1.51-1.78,0-3.17-.54-4.18-1.63ZM367.85,256.37c.9-.9,1.58-2.03,2.05-3.4.47-1.37.71-2.73.71-4.09s-.3-2.32-.91-3.02c-.61-.7-1.46-1.06-2.54-1.06-1.2,0-2.25.45-3.14,1.34-.9.9-1.58,2.03-2.05,3.4-.47,1.37-.71,2.73-.71,4.09s.3,2.32.91,3.02,1.46,1.06,2.57,1.06c1.18,0,2.22-.45,3.12-1.34Z"/>
        <path class="cls-1" d="M379.54,257.57h8.4l-.41,2.09h-12.07l.34-1.63,8.18-6.55c1.1-.9,1.87-1.66,2.29-2.29.42-.63.64-1.3.64-2,0-.75-.28-1.34-.83-1.78-.55-.43-1.37-.65-2.46-.65-.82,0-1.6.16-2.36.49s-1.42.79-1.98,1.38l-1.61-1.39c.7-.8,1.61-1.43,2.71-1.88,1.1-.46,2.3-.68,3.58-.68,1.68,0,2.99.38,3.94,1.15.94.77,1.42,1.78,1.42,3.05,0,1.02-.27,1.99-.82,2.89-.54.9-1.51,1.91-2.9,3.01l-6.05,4.8Z"/>
        <path class="cls-1" d="M395.71,257.57h8.4l-.41,2.09h-12.07l.34-1.63,8.18-6.55c1.1-.9,1.87-1.66,2.29-2.29.42-.63.64-1.3.64-2,0-.75-.28-1.34-.83-1.78-.55-.43-1.37-.65-2.46-.65-.82,0-1.6.16-2.36.49s-1.42.79-1.98,1.38l-1.61-1.39c.7-.8,1.61-1.43,2.71-1.88,1.1-.46,2.3-.68,3.58-.68,1.68,0,2.99.38,3.94,1.15.94.77,1.42,1.78,1.42,3.05,0,1.02-.27,1.99-.82,2.89-.54.9-1.51,1.91-2.9,3.01l-6.05,4.8Z"/>
      </g>
    </g>
  </g>
  <g>
    <g>
      <circle class="cls-1" cx="209.57" cy="230.98" r="3.93"/>
      <path class="cls-1" d="M256.04,233.53c-5.3-3.71-11.96-4.91-18.25-3.4-3.93.94-8.16,2.05-11.09,4,2.44-1.9,5.22-3.47,7.99-4.91-6.45,1.83-10.45,5.87-10.45,5.87,18.79,13.63,33.1-.6,33.1-.6-.44-.33-.87-.65-1.3-.96Z"/>
      <path class="cls-1" d="M316.91,233.25c-.84-9.9-8.36-16.33-14.13-23.62-1.27-1.61-2.56-3.21-4.03-4.64-2.06-2-4.28-3.83-6.64-5.47-14.97-10.45-33.52-14.35-51.52-14.01-7.88.21-15.84,1.38-23.42,3.69-4.81,1.47-8.44,3.52-8.44,3.52,0,0,3.88-3.48,9.47-5.39,3.31-7.16,1.47-16.7,1.47-16.7-16.7,5.56-15.4,19.89-14.76,23.58-2.34,1.23-4.61,2.6-6.79,4.13-4.99,3.5-9.53,7.89-12.41,13.38-4.72,8.57-3.25,19.84,4.66,25.99,15.37,11.95,36.34-2.67,49.62-11.48,9.59-6.3,19.65-12.36,30.52-15.97,8.95-2.85,19.78-3.19,26.81,3.63.15.15.29.3.43.45-.34.32-.66.66-.94,1.02-.71,1.02-1.56,2.05-2.24,3.09-3.16,4.75-5.24,10.67-4.1,16.37.52,2.8,2.45,6.18,5.1,9.01l5-5.98c-2.64-7.07.49-16.86.49-16.86,0,0-.91,7.73,2.05,13.51,2.6,5.08,5.27,7.46,9.2,9.43.56.2,2.51,1.02,2.51,1.02,0,0,2.67-4.95,2.1-11.69ZM194.71,211.51c2.17,0,3.93,1.76,3.93,3.93s-1.76,3.93-3.93,3.93-3.93-1.76-3.93-3.93,1.76-3.93,3.93-3.93ZM276.37,205.31c-1.89.37-4.54,1.58-6.88,1.72-1.13.07-2.18-.11-3.05-.75-2.48-1.81-2.44-4.87-5.86-6.15-3.08-1.15-6.66-.4-9.41,1.41-2.54,1.67-4.49,4.16-7.14,5.67-1.77,1.01-3.88,1.6-5.17,3.17-1.19,1.45-1.22,3.48-1.64,5.31-1.03,4.55-2.79,9.33-6.34,12.53-4,3.62-10.11,6.22-15.09,8.1-.51.18-1.01.35-1.52.52-4.89,1.6-10.25,2.72-15.34,1.41-2.63-.68-5.1-2.02-7.09-3.87-1.56-1.45-3.23-3.91-3.21-6.09.04-4.81,4.58-4.9,8.3-4.09,4.71,1.03,9.9-.65,11.22-5.98.76-3.1,0-6.91,2.37-9.05,1.88-1.7,4.95-1.43,6.9-3.04,2.67-2.2,2.28-7.04,5.33-8.67,1.63-.87,3.61-.44,5.45-.32,2.84.18,5.18-1.43,5.92-4.24.24-.93.61-1.99,1.62-2.31,1.09-.34,2.59-.15,3.73-.17,2.75-.06,5.5,0,8.25.18,5.5.37,10.98,1.23,16.32,2.64,8.71,2.29,17.1,6.03,24.33,11.45-2.14-1.6-9.56.15-11.99.62ZM297.77,214.15s.02.03.02.03c0,.02,0,0-.02-.03ZM312.85,239.99c-3.64-1.21-6.62-3.86-8.19-7.33-2.11-4.66-2.19-11.8-.72-16.65,6.82,5.64,11.44,15.33,8.91,23.98Z"/>
      <path class="cls-1" d="M305.93,219.41c0,.59-.48,1.07-1.07,1.07s-1.07-.48-1.07-1.07.48-1.07,1.07-1.07,1.07.48,1.07,1.07Z"/>
      <path class="cls-1" d="M305.26,223.16c0,.42-.34.77-.77.77s-.77-.34-.77-.77.34-.77.77-.77.77.34.77.77Z"/>
      <circle class="cls-1" cx="307.19" cy="222.39" r=".77"/>
      <circle class="cls-1" cx="306.81" cy="225.18" r=".48"/>
      <path class="cls-1" d="M280.07,202.28c-.06.85-.8,1.49-1.65,1.42s-1.49-.8-1.42-1.65c.06-.85.8-1.49,1.65-1.42.85.06,1.49.8,1.42,1.65ZM273.87,201.82c-.61-.04-1.13.41-1.18,1.02s.41,1.13,1.02,1.18c.61.04,1.13-.41,1.18-1.02.04-.61-.41-1.13-1.02-1.18ZM274.14,198.08c-.61-.04-1.13.41-1.18,1.02-.04.61.41,1.13,1.02,1.18.61.04,1.13-.41,1.18-1.02.04-.61-.41-1.13-1.02-1.18ZM270.1,203.4c-.38-.03-.72.26-.74.64-.03.38.26.72.64.74.38.03.72-.26.74-.64.03-.38-.26-.72-.64-.74ZM270.35,200.01c-.38-.03-.72.26-.74.64s.26.72.64.74c.38.03.72-.26.74-.64s-.26-.72-.64-.74ZM266.86,202.46c-.38-.03-.72.26-.74.64-.03.38.26.72.64.74.38.03.72-.26.74-.64.03-.38-.26-.72-.64-.74Z"/>
      <circle class="cls-1" cx="304.68" cy="226.07" r=".48"/>
      <path class="cls-1" d="M309.43,224.41c0,.27-.22.48-.48.48s-.48-.22-.48-.48.22-.48.48-.48.48.22.48.48Z"/>
      <path class="cls-1" d="M225.24,202.42c.1-.09.21-.18.31-.27,4.27-3.59,9.63-5.56,14.92-7.32,5.78-1.92,11.76-3.7,17.9-3.69,5.88,0,11.71,2.13,16.89,4.78-8.38-2.51-18.57-3.96-27.03-1.72-8.59,2.27-15.1,8.22-21.24,14.57-1.65,1.71-3.39,3.47-5.85,3.83-.51.07-1.09.07-1.47-.28-.41-.37-.45-1.01-.35-1.56.16-.91.59-1.75,1.07-2.55,1.29-2.17,2.93-4.14,4.84-5.8Z"/>
    </g>
    <g>
      <g>
        <path class="cls-1" d="M309.65,254.63c-15.37-11.95-36.34,2.67-49.62,11.48-9.59,6.3-19.65,12.36-30.52,15.97-8.95,2.85-19.78,3.19-26.81-3.63-.15-.15-.29-.3-.43-.45.34-.32.66-.66.94-1.02.71-1.02,1.56-2.05,2.24-3.09,3.16-4.75,5.24-10.67,4.1-16.37-.52-2.8-2.45-6.18-5.1-9.01l-5,5.98c2.64,7.07-.49,16.86-.49,16.86,0,0,.91-7.73-2.05-13.51-2.6-5.08-5.27-7.46-9.2-9.43-.56-.2-2.51-1.02-2.51-1.02,0,0-2.67,4.95-2.1,11.69.84,9.9,8.36,16.33,14.13,23.62,1.27,1.61,2.56,3.21,4.03,4.64,2.06,2,4.28,3.83,6.64,5.47,14.97,10.45,33.52,14.35,51.52,14.01,7.88-.21,15.84-1.38,23.42-3.69,4.81-1.47,8.44-3.52,8.44-3.52,0,0-3.88,3.48-9.47,5.39-3.31,7.16-1.47,16.7-1.47,16.7,16.7-5.56,15.4-19.89,14.76-23.58,2.34-1.23,4.61-2.6,6.79-4.13,4.99-3.5,9.53-7.89,12.41-13.38,4.72-8.57,3.25-19.84-4.66-25.99ZM196.06,276.32c-6.82-5.64-11.44-15.33-8.91-23.98,3.64,1.21,6.62,3.86,8.19,7.33,2.11,4.66,2.19,11.8.72,16.65ZM202.21,278.15s0,0,.02.03c0,0-.02-.03-.02-.03ZM309.99,281.8c-2.55,2.8-5.08,5.46-8.1,7.77-6.53,4.98-14.17,8.36-22.12,10.32-5.64,1.39-11.45,2.06-17.26,2.18-2.6.05-5.99.53-8.49-.31-3.17-1.06-2-5.18.76-3.93-.36-.16-.74-.24-1.13-.27-.62.21-1.24.4-1.88.57-1.16.31-2.35.54-3.56.71-.08.01-.15.02-.23.03-7.6,1.04-16.07-.32-23.24-2.46,3.27.76,6.61,1.19,9.96,1.35,3.04.15,6.17.67,8.66-1.43.42-.35.81-.77.98-1.3.58-1.81-1.24-2.23-2.46-1.41-.71.48-1.43,1.65-2.29,1.7-1.16.07-2.1-1.15-2.05-2.31.01-.35.1-.68.23-1,.31-.74.89-1.38,1.54-1.87,1.76-1.33,4.02-1.76,6.09-2.55,2.06-.79,4.17-2.21,4.59-4.38.22-1.11-.05-2.25.03-3.38.32-4.64,7.11-6.6,10.72-8.03,5.13-2.02,10.57-2.59,15.89-.89,2.54.81,5.36,2.03,7.71.78,1.63-.87,2.6-2.79,4.36-3.36,2.45-.79,5.02,1.43,7.56.97,1.49-.27,2.66-1.42,3.55-2.64.89-1.22,1.6-2.59,2.69-3.64,2.5-2.41,6.06-1.34,6,2.22-.03,1.59-1.59,3.06-1.04,4.76.59,1.82,2.47,2.03,3.85,3.06,3.08,2.31.65,6.57-1.3,8.72Z"/>
        <path class="cls-1" d="M305.29,272.96c-2.17,0-3.93,1.76-3.93,3.93s1.76,3.93,3.93,3.93,3.93-1.76,3.93-3.93-1.76-3.93-3.93-3.93Z"/>
      </g>
      <path class="cls-1" d="M291.67,263.83c2.66.41,4.91-1.85,4.51-4.5-.25-1.66-1.61-3.01-3.26-3.26-2.66-.41-4.91,1.85-4.51,4.5.25,1.66,1.61,3.01,3.26,3.26Z"/>
      <path class="cls-1" d="M243.96,258.8c5.3,3.71,11.96,4.91,18.25,3.4,3.93-.94,8.16-2.05,11.09-4-2.44,1.9-5.22,3.47-7.99,4.91,6.45-1.83,10.45-5.87,10.45-5.87-18.79-13.63-33.1.6-33.1.6.44.33.87.65,1.3.96Z"/>
      <path class="cls-1" d="M194.07,272.91c0-.59.48-1.07,1.07-1.07s1.07.48,1.07,1.07-.48,1.07-1.07,1.07-1.07-.48-1.07-1.07Z"/>
      <path class="cls-1" d="M194.74,269.17c0-.42.34-.77.77-.77s.77.34.77.77-.34.77-.77.77-.77-.34-.77-.77Z"/>
      <path class="cls-1" d="M192.05,269.94c0-.42.34-.77.77-.77s.77.34.77.77-.34.77-.77.77-.77-.34-.77-.77Z"/>
      <circle class="cls-1" cx="193.19" cy="267.15" r=".48"/>
      <circle class="cls-1" cx="195.32" cy="266.25" r=".48"/>
      <path class="cls-1" d="M190.57,267.92c0-.27.22-.48.48-.48s.48.22.48.48-.22.48-.48.48-.48-.22-.48-.48Z"/>
      <path class="cls-1" d="M274.76,289.9c-.1.09-.21.18-.31.27-4.27,3.59-9.63,5.56-14.92,7.32-5.78,1.92-11.76,3.7-17.9,3.69-5.88,0-11.71-2.13-16.89-4.78,8.38,2.51,18.57,3.96,27.03,1.72,8.59-2.27,15.1-8.22,21.24-14.57,1.65-1.71,3.39-3.47,5.85-3.83.51-.07,1.09-.07,1.47.28.41.37.45,1.01.35,1.56-.16.91-.59,1.75-1.07,2.55-1.29,2.17-2.93,4.14-4.84,5.8Z"/>
      <path class="cls-1" d="M219.93,290.05c.06-.85.8-1.49,1.65-1.42s1.49.8,1.42,1.65c-.06.85-.8,1.49-1.65,1.42-.85-.06-1.49-.8-1.42-1.65Z"/>
      <path class="cls-1" d="M225.12,289.33c.04-.61.57-1.06,1.18-1.02s1.06.57,1.02,1.18c-.04.61-.57,1.06-1.18,1.02-.61-.04-1.06-.57-1.02-1.18Z"/>
      <path class="cls-1" d="M224.84,293.07c.04-.61.57-1.06,1.18-1.02.61.04,1.06.57,1.02,1.18-.04.61-.57,1.06-1.18,1.02-.61-.04-1.06-.57-1.02-1.18Z"/>
      <path class="cls-1" d="M229.26,288.19c.03-.38.36-.67.74-.64.38.03.67.36.64.74-.03.38-.36.67-.74.64-.38-.03-.67-.36-.64-.74Z"/>
      <path class="cls-1" d="M229,291.57c.03-.38.36-.67.74-.64s.67.36.64.74-.36.67-.74.64c-.38-.03-.67-.36-.64-.74Z"/>
      <path class="cls-1" d="M232.5,289.12c.03-.38.36-.67.74-.64.38.03.67.36.64.74-.03.38-.36.67-.74.64-.38-.03-.67-.36-.64-.74Z"/>
    </g>
    <path class="cls-1" d="M280.45,221.31c2.87,1.37,5.19,4.11,2.41,6.93-1.16,1.18-3.1,1.5-4.58.76-1.05-.52-1.78-1.44-2.73-2.09-1.2-.82-2.88-.55-4.19-1.08-1.2-.48-1.75-1.84-1.38-3.06.56-1.85,2.75-2.6,4.49-2.74,2.05-.16,4.14.41,5.98,1.29Z"/>
    <path class="cls-1" d="M259.33,220.79c-.32.9.05,1.96.8,2.55.74.58,1.82.7,2.64.26s1.34-1.43,1.17-2.35c-.4-2.18-3.84-2.63-4.61-.46Z"/>
    <path class="cls-1" d="M220.33,265.37c-2,.24-3.87.9-5.12,2.18-2.18,2.24-.98,6,1.12,7.84,2.87,2.52,7.79,3.03,11.33,1.87,6.05-1.98,5.49-9.17-.25-11.16-1.92-.67-4.6-1.03-7.08-.74Z"/>
    <path class="cls-1" d="M231.57,259.57c0,1.41-1.14,2.55-2.55,2.55s-2.55-1.14-2.55-2.55,1.14-2.55,2.55-2.55,2.55,1.14,2.55,2.55Z"/>
  </g>
</svg>