<?xml version="1.0" encoding="UTF-8"?>
<svg id="OBJECTS" xmlns="http://www.w3.org/2000/svg" viewBox="0 0 500 500">
  <defs>
    <style>
      .cls-1 {
        fill: #fff;
        stroke-width: 0px;
      }
    </style>
  </defs>
  <g>
    <circle class="cls-1" cx="209.57" cy="230.98" r="3.93"/>
    <path class="cls-1" d="M256.04,233.53c-5.3-3.71-11.96-4.91-18.25-3.4-3.93.94-8.16,2.05-11.09,4,2.44-1.9,5.22-3.47,7.99-4.91-6.45,1.83-10.45,5.87-10.45,5.87,18.79,13.63,33.1-.6,33.1-.6-.44-.33-.87-.65-1.3-.96Z"/>
    <path class="cls-1" d="M316.91,233.25c-.84-9.9-8.36-16.33-14.13-23.62-1.27-1.61-2.56-3.21-4.03-4.64-2.06-2-4.28-3.83-6.64-5.47-14.97-10.45-33.52-14.35-51.52-14.01-7.88.21-15.84,1.38-23.42,3.69-4.81,1.47-8.44,3.52-8.44,3.52,0,0,3.88-3.48,9.47-5.39,3.31-7.16,1.47-16.7,1.47-16.7-16.7,5.56-15.4,19.89-14.76,23.58-2.34,1.23-4.61,2.6-6.79,4.13-4.99,3.5-9.53,7.89-12.41,13.38-4.72,8.57-3.25,19.84,4.66,25.99,15.37,11.95,36.34-2.67,49.62-11.48,9.59-6.3,19.65-12.36,30.52-15.97,8.95-2.85,19.78-3.19,26.81,3.63.15.15.29.3.43.45-.34.32-.66.66-.94,1.02-.71,1.02-1.56,2.05-2.24,3.09-3.16,4.75-5.24,10.67-4.1,16.37.52,2.8,2.45,6.18,5.1,9.01l5-5.98c-2.64-7.07.49-16.86.49-16.86,0,0-.91,7.73,2.05,13.51,2.6,5.08,5.27,7.46,9.2,9.43.56.2,2.51,1.02,2.51,1.02,0,0,2.67-4.95,2.1-11.69ZM194.71,211.51c2.17,0,3.93,1.76,3.93,3.93s-1.76,3.93-3.93,3.93-3.93-1.76-3.93-3.93,1.76-3.93,3.93-3.93ZM276.37,205.31c-1.89.37-4.54,1.58-6.88,1.72-1.13.07-2.18-.11-3.05-.75-2.48-1.81-2.44-4.87-5.86-6.15-3.08-1.15-6.66-.4-9.41,1.41-2.54,1.67-4.49,4.16-7.14,5.67-1.77,1.01-3.88,1.6-5.17,3.17-1.19,1.45-1.22,3.48-1.64,5.31-1.03,4.55-2.79,9.33-6.34,12.53-4,3.62-10.11,6.22-15.09,8.1-.51.18-1.01.35-1.52.52-4.89,1.6-10.25,2.72-15.34,1.41-2.63-.68-5.1-2.02-7.09-3.87-1.56-1.45-3.23-3.91-3.21-6.09.04-4.81,4.58-4.9,8.3-4.09,4.71,1.03,9.9-.65,11.22-5.98.76-3.1,0-6.91,2.37-9.05,1.88-1.7,4.95-1.43,6.9-3.04,2.67-2.2,2.28-7.04,5.33-8.67,1.63-.87,3.61-.44,5.45-.32,2.84.18,5.18-1.43,5.92-4.24.24-.93.61-1.99,1.62-2.31,1.09-.34,2.59-.15,3.73-.17,2.75-.06,5.5,0,8.25.18,5.5.37,10.98,1.23,16.32,2.64,8.71,2.29,17.1,6.03,24.33,11.45-2.14-1.6-9.56.15-11.99.62ZM297.77,214.15s.02.03.02.03c0,.02,0,0-.02-.03ZM312.85,239.99c-3.64-1.21-6.62-3.86-8.19-7.33-2.11-4.66-2.19-11.8-.72-16.65,6.82,5.64,11.44,15.33,8.91,23.98Z"/>
    <path class="cls-1" d="M305.93,219.41c0,.59-.48,1.07-1.07,1.07s-1.07-.48-1.07-1.07.48-1.07,1.07-1.07,1.07.48,1.07,1.07Z"/>
    <path class="cls-1" d="M305.26,223.16c0,.42-.34.77-.77.77s-.77-.34-.77-.77.34-.77.77-.77.77.34.77.77Z"/>
    <circle class="cls-1" cx="307.19" cy="222.39" r=".77"/>
    <circle class="cls-1" cx="306.81" cy="225.18" r=".48"/>
    <path class="cls-1" d="M280.07,202.28c-.06.85-.8,1.49-1.65,1.42s-1.49-.8-1.42-1.65c.06-.85.8-1.49,1.65-1.42.85.06,1.49.8,1.42,1.65ZM273.87,201.82c-.61-.04-1.13.41-1.18,1.02s.41,1.13,1.02,1.18c.61.04,1.13-.41,1.18-1.02.04-.61-.41-1.13-1.02-1.18ZM274.14,198.08c-.61-.04-1.13.41-1.18,1.02-.04.61.41,1.13,1.02,1.18.61.04,1.13-.41,1.18-1.02.04-.61-.41-1.13-1.02-1.18ZM270.1,203.4c-.38-.03-.72.26-.74.64-.03.38.26.72.64.74.38.03.72-.26.74-.64.03-.38-.26-.72-.64-.74ZM270.35,200.01c-.38-.03-.72.26-.74.64s.26.72.64.74c.38.03.72-.26.74-.64s-.26-.72-.64-.74ZM266.86,202.46c-.38-.03-.72.26-.74.64-.03.38.26.72.64.74.38.03.72-.26.74-.64.03-.38-.26-.72-.64-.74Z"/>
    <circle class="cls-1" cx="304.68" cy="226.07" r=".48"/>
    <path class="cls-1" d="M309.43,224.41c0,.27-.22.48-.48.48s-.48-.22-.48-.48.22-.48.48-.48.48.22.48.48Z"/>
    <path class="cls-1" d="M225.24,202.42c.1-.09.21-.18.31-.27,4.27-3.59,9.63-5.56,14.92-7.32,5.78-1.92,11.76-3.7,17.9-3.69,5.88,0,11.71,2.13,16.89,4.78-8.38-2.51-18.57-3.96-27.03-1.72-8.59,2.27-15.1,8.22-21.24,14.57-1.65,1.71-3.39,3.47-5.85,3.83-.51.07-1.09.07-1.47-.28-.41-.37-.45-1.01-.35-1.56.16-.91.59-1.75,1.07-2.55,1.29-2.17,2.93-4.14,4.84-5.8Z"/>
  </g>
  <g>
    <g>
      <path class="cls-1" d="M309.65,254.63c-15.37-11.95-36.34,2.67-49.62,11.48-9.59,6.3-19.65,12.36-30.52,15.97-8.95,2.85-19.78,3.19-26.81-3.63-.15-.15-.29-.3-.43-.45.34-.32.66-.66.94-1.02.71-1.02,1.56-2.05,2.24-3.09,3.16-4.75,5.24-10.67,4.1-16.37-.52-2.8-2.45-6.18-5.1-9.01l-5,5.98c2.64,7.07-.49,16.86-.49,16.86,0,0,.91-7.73-2.05-13.51-2.6-5.08-5.27-7.46-9.2-9.43-.56-.2-2.51-1.02-2.51-1.02,0,0-2.67,4.95-2.1,11.69.84,9.9,8.36,16.33,14.13,23.62,1.27,1.61,2.56,3.21,4.03,4.64,2.06,2,4.28,3.83,6.64,5.47,14.97,10.45,33.52,14.35,51.52,14.01,7.88-.21,15.84-1.38,23.42-3.69,4.81-1.47,8.44-3.52,8.44-3.52,0,0-3.88,3.48-9.47,5.39-3.31,7.16-1.47,16.7-1.47,16.7,16.7-5.56,15.4-19.89,14.76-23.58,2.34-1.23,4.61-2.6,6.79-4.13,4.99-3.5,9.53-7.89,12.41-13.38,4.72-8.57,3.25-19.84-4.66-25.99ZM196.06,276.32c-6.82-5.64-11.44-15.33-8.91-23.98,3.64,1.21,6.62,3.86,8.19,7.33,2.11,4.66,2.19,11.8.72,16.65ZM202.21,278.15s0,0,.02.03c0,0-.02-.03-.02-.03ZM309.99,281.8c-2.55,2.8-5.08,5.46-8.1,7.77-6.53,4.98-14.17,8.36-22.12,10.32-5.64,1.39-11.45,2.06-17.26,2.18-2.6.05-5.99.53-8.49-.31-3.17-1.06-2-5.18.76-3.93-.36-.16-.74-.24-1.13-.27-.62.21-1.24.4-1.88.57-1.16.31-2.35.54-3.56.71-.08.01-.15.02-.23.03-7.6,1.04-16.07-.32-23.24-2.46,3.27.76,6.61,1.19,9.96,1.35,3.04.15,6.17.67,8.66-1.43.42-.35.81-.77.98-1.3.58-1.81-1.24-2.23-2.46-1.41-.71.48-1.43,1.65-2.29,1.7-1.16.07-2.1-1.15-2.05-2.31.01-.35.1-.68.23-1,.31-.74.89-1.38,1.54-1.87,1.76-1.33,4.02-1.76,6.09-2.55,2.06-.79,4.17-2.21,4.59-4.38.22-1.11-.05-2.25.03-3.38.32-4.64,7.11-6.6,10.72-8.03,5.13-2.02,10.57-2.59,15.89-.89,2.54.81,5.36,2.03,7.71.78,1.63-.87,2.6-2.79,4.36-3.36,2.45-.79,5.02,1.43,7.56.97,1.49-.27,2.66-1.42,3.55-2.64.89-1.22,1.6-2.59,2.69-3.64,2.5-2.41,6.06-1.34,6,2.22-.03,1.59-1.59,3.06-1.04,4.76.59,1.82,2.47,2.03,3.85,3.06,3.08,2.31.65,6.57-1.3,8.72Z"/>
      <path class="cls-1" d="M305.29,272.96c-2.17,0-3.93,1.76-3.93,3.93s1.76,3.93,3.93,3.93,3.93-1.76,3.93-3.93-1.76-3.93-3.93-3.93Z"/>
    </g>
    <path class="cls-1" d="M291.67,263.83c2.66.41,4.91-1.85,4.51-4.5-.25-1.66-1.61-3.01-3.26-3.26-2.66-.41-4.91,1.85-4.51,4.5.25,1.66,1.61,3.01,3.26,3.26Z"/>
    <path class="cls-1" d="M243.96,258.8c5.3,3.71,11.96,4.91,18.25,3.4,3.93-.94,8.16-2.05,11.09-4-2.44,1.9-5.22,3.47-7.99,4.91,6.45-1.83,10.45-5.87,10.45-5.87-18.79-13.63-33.1.6-33.1.6.44.33.87.65,1.3.96Z"/>
    <path class="cls-1" d="M194.07,272.91c0-.59.48-1.07,1.07-1.07s1.07.48,1.07,1.07-.48,1.07-1.07,1.07-1.07-.48-1.07-1.07Z"/>
    <path class="cls-1" d="M194.74,269.17c0-.42.34-.77.77-.77s.77.34.77.77-.34.77-.77.77-.77-.34-.77-.77Z"/>
    <path class="cls-1" d="M192.05,269.94c0-.42.34-.77.77-.77s.77.34.77.77-.34.77-.77.77-.77-.34-.77-.77Z"/>
    <circle class="cls-1" cx="193.19" cy="267.15" r=".48"/>
    <circle class="cls-1" cx="195.32" cy="266.25" r=".48"/>
    <path class="cls-1" d="M190.57,267.92c0-.27.22-.48.48-.48s.48.22.48.48-.22.48-.48.48-.48-.22-.48-.48Z"/>
    <path class="cls-1" d="M274.76,289.9c-.1.09-.21.18-.31.27-4.27,3.59-9.63,5.56-14.92,7.32-5.78,1.92-11.76,3.7-17.9,3.69-5.88,0-11.71-2.13-16.89-4.78,8.38,2.51,18.57,3.96,27.03,1.72,8.59-2.27,15.1-8.22,21.24-14.57,1.65-1.71,3.39-3.47,5.85-3.83.51-.07,1.09-.07,1.47.28.41.37.45,1.01.35,1.56-.16.91-.59,1.75-1.07,2.55-1.29,2.17-2.93,4.14-4.84,5.8Z"/>
    <path class="cls-1" d="M219.93,290.05c.06-.85.8-1.49,1.65-1.42s1.49.8,1.42,1.65c-.06.85-.8,1.49-1.65,1.42-.85-.06-1.49-.8-1.42-1.65Z"/>
    <path class="cls-1" d="M225.12,289.33c.04-.61.57-1.06,1.18-1.02s1.06.57,1.02,1.18c-.04.61-.57,1.06-1.18,1.02-.61-.04-1.06-.57-1.02-1.18Z"/>
    <path class="cls-1" d="M224.84,293.07c.04-.61.57-1.06,1.18-1.02.61.04,1.06.57,1.02,1.18-.04.61-.57,1.06-1.18,1.02-.61-.04-1.06-.57-1.02-1.18Z"/>
    <path class="cls-1" d="M229.26,288.19c.03-.38.36-.67.74-.64.38.03.67.36.64.74-.03.38-.36.67-.74.64-.38-.03-.67-.36-.64-.74Z"/>
    <path class="cls-1" d="M229,291.57c.03-.38.36-.67.74-.64s.67.36.64.74-.36.67-.74.64c-.38-.03-.67-.36-.64-.74Z"/>
    <path class="cls-1" d="M232.5,289.12c.03-.38.36-.67.74-.64.38.03.67.36.64.74-.03.38-.36.67-.74.64-.38-.03-.67-.36-.64-.74Z"/>
  </g>
  <path class="cls-1" d="M280.45,221.31c2.87,1.37,5.19,4.11,2.41,6.93-1.16,1.18-3.1,1.5-4.58.76-1.05-.52-1.78-1.44-2.73-2.09-1.2-.82-2.88-.55-4.19-1.08-1.2-.48-1.75-1.84-1.38-3.06.56-1.85,2.75-2.6,4.49-2.74,2.05-.16,4.14.41,5.98,1.29Z"/>
  <path class="cls-1" d="M259.33,220.79c-.32.9.05,1.96.8,2.55.74.58,1.82.7,2.64.26s1.34-1.43,1.17-2.35c-.4-2.18-3.84-2.63-4.61-.46Z"/>
  <path class="cls-1" d="M220.33,265.37c-2,.24-3.87.9-5.12,2.18-2.18,2.24-.98,6,1.12,7.84,2.87,2.52,7.79,3.03,11.33,1.87,6.05-1.98,5.49-9.17-.25-11.16-1.92-.67-4.6-1.03-7.08-.74Z"/>
  <path class="cls-1" d="M231.57,259.57c0,1.41-1.14,2.55-2.55,2.55s-2.55-1.14-2.55-2.55,1.14-2.55,2.55-2.55,2.55,1.14,2.55,2.55Z"/>
</svg>