<?xml version="1.0" encoding="UTF-8"?>
<svg id="Capa_1" data-name="Capa 1" xmlns="http://www.w3.org/2000/svg" viewBox="0 0 373.33 373.33">
  <defs>
    <style>
      .cls-1 {
        fill: #000;
        fill-rule: evenodd;
      }

      .cls-1, .cls-2 {
        stroke-width: 0px;
      }

      .cls-2 {
        fill: #fff;
      }
    </style>
  </defs>
  <circle class="cls-2" cx="186.67" cy="186.67" r="186.67"/>
  <path class="cls-1" d="M154.17,132.74c6.05-3.85,9.9-1.1,12.1,4.95l5.5,14.3s3.85,7.7-6.05,15.4q-1.65,1.1-1.1,3.85c2.2,6.6,11,26.4,39.04,41.79,2.75,1.65,3.3,1.65,6.05-.55,2.2-2.2,4.95-4.95,7.15-7.15,4.95-4.4,7.7-6.05,12.1-2.75,3.3,2.2,6.6,4.95,9.9,7.15,3.3,2.75,8.8,6.05,3.3,12.65l-4.95,6.05c-7.15,8.8-13.2,9.35-22.55,7.15-35.74-9.35-62.14-34.64-73.69-70.39-3.85-13.75,1.65-25.3,13.2-32.44h0ZM192.67,73.9c59.94,0,108.33,48.39,108.33,108.33s-48.39,108.33-108.33,108.33c-16.5,0-31.89-3.3-45.64-9.9l-57.74,9.9,7.7-57.19-.55-1.1c-7.7-14.85-12.1-31.89-12.1-50.04,0-59.94,48.39-108.33,108.33-108.33h0ZM124.48,266.36l15.4-2.75,9.35-1.65c13.2,7.15,27.5,11,43.44,11,18.86,0,72.31-15.86,87.31-66,.93-3.09,13.62-48.4-17.43-84.65-23.66-27.63-61.67-37.08-94.61-27.39-40.56,11.93-66,50.52-66,87.31,0,18.15,5.5,34.64,14.3,48.94l-1.1,8.25-2.2,16.5-1.65,12.65,13.2-2.2Z"/>
</svg>